<svg width="16" height="17" viewBox="0 0 16 17" fill="none" xmlns="http://www.w3.org/2000/svg">
<path fill-rule="evenodd" clip-rule="evenodd" d="M4.78001 3.83333L6.00001 2.5H10L11.22 3.83333H13.3333C14.0667 3.83333 14.6667 4.43333 14.6667 5.16667V13.1667C14.6667 13.9 14.0667 14.5 13.3333 14.5H2.66668C1.93334 14.5 1.33334 13.9 1.33334 13.1667V5.16667C1.33334 4.43333 1.93334 3.83333 2.66668 3.83333H4.78001ZM4.66668 9.16667C4.66668 11.0067 6.16001 12.5 8.00001 12.5C9.84001 12.5 11.3333 11.0067 11.3333 9.16667C11.3333 7.32667 9.84001 5.83333 8.00001 5.83333C6.16001 5.83333 4.66668 7.32667 4.66668 9.16667ZM8.00001 11.3C9.17822 11.3 10.1333 10.3449 10.1333 9.16667C10.1333 7.98846 9.17822 7.03333 8.00001 7.03333C6.8218 7.03333 5.86668 7.98846 5.86668 9.16667C5.86668 10.3449 6.8218 11.3 8.00001 11.3Z" fill="#969696"/>
</svg>
