<svg width="200" height="140" viewBox="0 0 200 140" fill="none" xmlns="http://www.w3.org/2000/svg">
<path fill-rule="evenodd" clip-rule="evenodd" d="M83.0443 15.3263C89.5001 8.59159 98.4854 4.42107 108.412 4.42107C121.647 4.42107 133.118 11.7895 139.294 22.7684C144.777 20.3124 150.715 19.0443 156.721 19.0474C180.544 19.0474 199.882 38.5737 199.882 62.6684C199.882 86.7632 180.544 106.289 156.721 106.289C153.809 106.289 150.971 105.996 148.191 105.442C142.787 115.095 132.456 121.653 120.691 121.653C115.901 121.662 111.173 120.573 106.868 118.469C101.39 131.364 88.6325 140.427 73.7795 140.427C58.2648 140.427 45.1031 130.627 40.0295 116.848C37.7714 117.326 35.4697 117.566 33.1619 117.565C14.706 117.565 -0.220459 102.386 -0.220459 83.7436C-0.220459 71.2173 6.50013 60.312 16.4707 54.4173C14.3555 49.5342 13.2667 44.2669 13.2722 38.9436C13.2722 17.4278 30.6987 0.0383301 52.1693 0.0383301C64.7428 0.0383301 75.9928 6.04359 83.0516 15.3646" fill="black"/>
</svg>
