<svg width="152" height="20" viewBox="0 0 152 20" fill="none" xmlns="http://www.w3.org/2000/svg">
<path fill-rule="evenodd" clip-rule="evenodd" d="M0.92658 16.8001C0.800844 17.1287 0.971431 17.1972 1.01187 17.2554C1.38761 17.5281 1.76923 17.7255 2.15158 17.9473C4.1957 19.0305 6.12217 19.3473 8.13687 19.3473C12.2398 19.3473 14.7913 17.1589 14.7913 13.6368V13.5675C14.7913 10.3107 11.9089 9.12438 9.21775 8.27701L8.86555 8.1628C6.82878 7.50112 5.07143 6.9249 5.07143 5.58385V5.51532C5.07143 4.36585 6.10084 3.51848 7.68908 3.51848C9.45378 3.51848 11.5567 4.10722 12.9023 4.85217C12.9023 4.85217 13.3008 5.11006 13.4457 4.72469C13.5244 4.51617 14.2104 2.67627 14.2839 2.46995C14.3619 2.25406 14.2251 2.09122 14.0847 2.00722C12.5405 1.06406 10.4082 0.423006 8.20231 0.423006L7.79275 0.424479C4.0354 0.424479 1.4104 2.70132 1.4104 5.95816V6.02817C1.4104 9.46185 4.30746 10.5819 7.01334 11.3555L7.44864 11.4911C9.41923 12.0983 11.1251 12.6258 11.1251 14.0111V14.0804C11.1251 15.3551 10.0148 16.3056 8.2354 16.3056C7.54349 16.3056 5.33834 16.2938 2.94864 14.7804C2.65967 14.6116 2.49496 14.4901 2.27217 14.3537C2.15452 14.2823 1.8604 14.1533 1.73246 14.5394L0.923637 16.7942L0.92658 16.8001ZM60.9972 16.7942C60.8714 17.1228 61.042 17.1913 61.0839 17.2495C61.4582 17.5222 61.8413 17.7196 62.2236 17.9414C64.2678 19.0246 66.1942 19.3414 68.2089 19.3414C72.3119 19.3414 74.8633 17.153 74.8633 13.6309V13.5616C74.8633 10.3048 71.9883 9.11848 69.2898 8.27111L68.9376 8.1569C66.9008 7.49522 65.1435 6.91901 65.1435 5.57796V5.50943C65.1435 4.35995 66.1729 3.51259 67.7611 3.51259C69.5258 3.51259 71.6214 4.10133 72.9744 4.84627C72.9744 4.84627 73.3729 5.10417 73.5185 4.7188C73.5964 4.51027 74.2832 2.67038 74.3494 2.46406C74.4281 2.24817 74.2906 2.08533 74.1508 2.00133C72.6067 1.05817 70.4744 0.417114 68.2685 0.417114L67.8582 0.418587C64.1008 0.418587 61.4758 2.69543 61.4758 5.95227V6.02227C61.4758 9.45595 64.3729 10.576 67.0788 11.3496L67.5133 11.4852C69.4913 12.0924 71.1898 12.62 71.1898 14.0052V14.0745C71.1898 15.3492 70.0795 16.2997 68.3001 16.2997C67.6067 16.2997 65.3957 16.288 63.0133 14.7745C62.7244 14.6057 62.5553 14.4893 62.3361 14.3479C62.2619 14.3007 61.9156 14.1651 61.7972 14.5335L60.9883 16.7883L60.9972 16.7942ZM102.018 9.89143C102.018 11.8809 101.647 13.4504 100.922 14.563C100.199 15.6609 99.106 16.1988 97.5839 16.1988C96.0619 16.1988 94.9736 15.6653 94.2604 14.5704C93.542 13.4651 93.1795 11.8883 93.1795 9.8988C93.1795 7.90932 93.5442 6.34722 94.2604 5.24932C94.9722 4.1588 96.0545 3.63564 97.5839 3.63564C99.1134 3.63564 100.202 4.16396 100.922 5.24932C101.652 6.34722 102.018 7.90932 102.018 9.8988V9.89143ZM105.444 6.20722C105.107 5.06512 104.584 4.06301 103.885 3.22301C103.186 2.38301 102.305 1.70511 101.253 1.2188C100.209 0.728797 98.9736 0.481954 97.5766 0.481954C96.1795 0.481954 94.9516 0.73027 93.9001 1.2188C92.856 1.70806 91.9663 2.38301 91.2678 3.22301C90.5707 4.06301 90.0472 5.06512 89.7089 6.20722C89.3744 7.34196 89.2045 8.57985 89.2045 9.8988C89.2045 11.2177 89.3744 12.4556 89.7089 13.5904C90.045 14.7325 90.5692 15.7346 91.2678 16.5746C91.967 17.4146 92.856 18.0851 93.9001 18.5641C94.9516 19.0415 96.1869 19.2847 97.5766 19.2847C98.9663 19.2847 100.202 19.0415 101.246 18.5641C102.29 18.0866 103.18 17.4146 103.878 16.5746C104.576 15.7346 105.099 14.7325 105.437 13.5904C105.771 12.4556 105.941 11.2177 105.941 9.8988C105.941 8.58722 105.771 7.34196 105.437 6.20722H105.444ZM133.599 15.6388C133.486 15.305 133.161 15.431 133.161 15.431C132.663 15.6219 132.132 15.7987 131.566 15.8871C130.995 15.977 130.36 16.022 129.691 16.022C128.036 16.022 126.713 15.5275 125.771 14.5483C124.823 13.5683 124.293 11.9914 124.301 9.85459C124.306 7.90932 124.775 6.45038 125.617 5.33038C126.448 4.22511 127.727 3.65038 129.419 3.65038C130.83 3.65038 131.911 3.81469 133.044 4.16985C133.044 4.16985 133.312 4.28701 133.441 3.93259C133.741 3.09995 133.963 2.50311 134.286 1.58943C134.377 1.32785 134.154 1.21732 134.072 1.18564C133.628 1.01175 132.58 0.726585 131.785 0.60648C131.043 0.493006 130.182 0.434058 129.212 0.434058C127.771 0.434058 126.491 0.6809 125.396 1.17016C124.3 1.65869 123.374 2.33438 122.638 3.17438C121.903 4.01438 121.344 5.01648 120.969 6.15859C120.598 7.29332 120.41 8.53859 120.41 9.85753C120.41 12.7017 121.175 15.0081 122.69 16.6954C124.205 18.3902 126.484 19.2449 129.455 19.2449C131.212 19.2449 133.013 18.889 134.307 18.3754C134.307 18.3754 134.555 18.2561 134.447 17.9672L133.602 15.6388H133.599ZM139.594 7.97564C139.758 6.87037 140.06 5.94932 140.535 5.23458C141.246 4.14406 142.33 3.54722 143.852 3.54722C145.374 3.54722 146.381 4.14701 147.102 5.23458C147.58 5.95301 147.788 6.90722 147.866 7.97564L139.557 7.97416L139.594 7.97564ZM151.138 5.54406C150.846 4.44617 150.124 3.33353 149.653 2.82511C148.903 2.02195 148.175 1.45459 147.447 1.14511C146.396 0.697294 145.266 0.467444 144.124 0.469429C142.675 0.469429 141.359 0.714799 140.293 1.21364C139.227 1.71617 138.33 2.39996 137.624 3.25469C136.919 4.10943 136.388 5.1189 136.05 6.27574C135.712 7.41785 135.541 8.67048 135.541 9.98206C135.541 11.3231 135.718 12.5684 136.067 13.6957C136.419 14.8305 136.986 15.8252 137.751 16.6505C138.516 17.4831 139.493 18.1315 140.67 18.5884C141.839 19.0415 143.258 19.2766 144.883 19.2714C148.236 19.2604 150.001 18.5125 150.721 18.1072C150.85 18.035 150.971 17.9105 150.82 17.5516L150.063 15.4222C149.946 15.1046 149.626 15.2195 149.626 15.2195C148.795 15.5305 147.618 16.089 144.861 16.0816C143.06 16.0787 141.729 15.546 140.891 14.7111C140.038 13.8564 139.611 12.6111 139.545 10.8427L151.163 10.8515C151.163 10.8515 151.468 10.8486 151.5 10.5494C151.513 10.4256 151.898 8.16206 151.154 5.54627L151.138 5.54406ZM46.7266 7.97564C46.8906 6.87037 47.1935 5.94932 47.6678 5.23458C48.3795 4.14406 49.4619 3.54722 50.9839 3.54722C52.506 3.54722 53.5133 4.14701 54.2339 5.23458C54.7111 5.95301 54.92 6.90722 54.9986 7.97564L46.6898 7.97416L46.7266 7.97564ZM58.2707 5.54406C57.9795 4.44617 57.256 3.33353 56.7854 2.82511C56.0354 2.02195 55.3075 1.45459 54.5795 1.14511C53.5286 0.697294 52.398 0.467444 51.256 0.469429C49.8075 0.469429 48.4913 0.714799 47.4251 1.21364C46.3589 1.71617 45.4619 2.39996 44.756 3.25469C44.0523 4.10943 43.5207 5.1189 43.1825 6.27574C42.845 7.41785 42.6751 8.67048 42.6751 9.98206C42.6751 11.3231 42.8508 12.5684 43.2016 13.6957C43.5531 14.8305 44.1207 15.8252 44.8781 16.6505C45.6428 17.4831 46.6207 18.1315 47.7972 18.5884C48.9663 19.0415 50.3781 19.2766 52.0104 19.2714C55.3633 19.2604 57.1281 18.5125 57.8486 18.1072C57.9766 18.035 58.0986 17.9105 57.9464 17.5516L57.1891 15.4222C57.0722 15.1046 56.7516 15.2195 56.7516 15.2195C55.9207 15.5305 54.7442 16.089 51.9869 16.0816C50.1928 16.0787 48.8545 15.546 48.0163 14.7111C47.1633 13.8564 46.7369 12.6111 46.6707 10.8427L58.2883 10.8515C58.2883 10.8515 58.5942 10.8486 58.6258 10.5494C58.6383 10.4256 59.0236 8.16206 58.2788 5.54627L58.2707 5.54406ZM21.653 15.5651C21.1979 15.2011 21.1347 15.112 20.9839 14.8754C20.7538 14.5195 20.6361 14.0133 20.6361 13.3649C20.6361 12.3481 20.9744 11.6112 21.6729 11.1175C21.6655 11.119 22.6729 10.2481 25.0406 10.2775C26.0944 10.2964 27.1458 10.3863 28.1876 10.5465V15.8296H28.1891C28.1891 15.8296 26.7185 16.1472 25.0567 16.2474C22.6964 16.3896 21.6523 15.5666 21.6597 15.5688L21.653 15.5651ZM26.2707 7.38617C25.8001 7.35154 25.1898 7.33459 24.4619 7.33459C23.4692 7.33459 22.506 7.45838 21.6089 7.70154C20.7045 7.94617 19.8883 8.3249 19.1898 8.8289C18.4894 9.32966 17.9132 9.98515 17.506 10.7447C17.095 11.511 16.8854 12.41 16.8854 13.4268C16.8854 14.4584 17.0641 15.35 17.417 16.0794C17.7629 16.803 18.2835 17.4286 18.9317 17.8994C19.5766 18.3695 20.3729 18.7173 21.292 18.9236C22.2038 19.1322 23.2332 19.2375 24.3656 19.2375C25.5567 19.2375 26.7406 19.1373 27.8876 18.9435C28.8646 18.7747 29.8378 18.585 30.8067 18.3747C31.1935 18.2855 31.6229 18.1684 31.6229 18.1684C31.9097 18.0954 31.8876 17.7882 31.8876 17.7882L31.881 7.17764C31.881 4.84922 31.2604 3.11764 30.0354 2.04922C28.8148 0.980796 27.0281 0.442901 24.7119 0.442901C23.8442 0.442901 22.4398 0.560796 21.6016 0.729532C21.6016 0.729532 19.0722 1.22174 18.0281 2.04111C18.0281 2.04111 17.7986 2.18259 17.9236 2.50312L18.7472 4.71364C18.8494 5.00027 19.128 4.90227 19.128 4.90227C19.128 4.90227 19.2156 4.86764 19.3185 4.80648C21.5464 3.59069 24.37 3.62753 24.37 3.62753C25.62 3.62753 26.5905 3.88175 27.2376 4.37911C27.8707 4.86617 28.1935 5.60227 28.1935 7.14964V7.64112C27.2008 7.49669 26.2817 7.41343 26.2817 7.41343L26.2707 7.38617ZM119.653 1.39564C119.67 1.35678 119.679 1.31495 119.679 1.27264C119.679 1.23032 119.671 1.18839 119.655 1.14934C119.638 1.11028 119.614 1.07491 119.584 1.04532C119.554 1.01574 119.518 0.992536 119.479 0.97711C119.281 0.901952 118.295 0.693428 117.538 0.64627C116.082 0.554902 115.273 0.801006 114.545 1.12816C113.826 1.45311 113.03 1.97553 112.589 2.57974L112.588 1.16501C112.588 0.970482 112.45 0.813531 112.255 0.813531H109.284C109.091 0.813531 108.952 0.970482 108.952 1.16501V18.4808C108.952 18.5743 108.989 18.664 109.055 18.7302C109.121 18.7963 109.21 18.8335 109.304 18.8337H112.348C112.441 18.8335 112.531 18.7963 112.596 18.7301C112.662 18.6639 112.699 18.5743 112.699 18.4808V9.78606C112.699 8.62185 112.827 7.46501 113.082 6.73553C113.334 6.01416 113.676 5.43869 114.097 5.02606C114.499 4.62752 114.991 4.33182 115.531 4.16396C116.038 4.01819 116.563 3.94428 117.09 3.94437C117.696 3.94437 118.362 4.10059 118.362 4.10059C118.585 4.12564 118.71 3.98859 118.785 3.78669C118.985 3.25543 119.55 1.66459 119.66 1.34775" fill="#FFFFFE"/>
</svg>
