<svg width="57" height="35" viewBox="0 0 57 35" fill="none" xmlns="http://www.w3.org/2000/svg">
<path fill-rule="evenodd" clip-rule="evenodd" d="M56.2214 0.403653C55.8452 0.289699 55.4624 0.198659 55.0751 0.131025C54.5542 0.0438967 54.0267 0.00296601 53.4986 0.00870877C51.4008 0.00870877 49.7472 0.602605 48.5861 1.77566C47.4332 2.93987 46.6486 4.71345 46.2553 7.04703L46.1133 7.83471H43.4803C43.4803 7.83471 43.1589 7.82145 43.0913 8.17292L42.6589 10.5898C42.6288 10.8211 42.7281 10.9655 43.0369 10.9641H45.6001L42.9994 25.5116C42.7957 26.6831 42.5626 27.6469 42.3045 28.3771C42.0501 29.0978 41.8016 29.6379 41.4957 30.0299C41.1994 30.4093 40.9185 30.6886 40.4339 30.8514C40.0339 30.9863 39.5736 31.0482 39.0692 31.0482C38.7883 31.0482 38.4148 31.001 38.1391 30.9458C37.8633 30.8912 37.72 30.8293 37.5133 30.7424C37.5133 30.7424 37.2126 30.6274 37.0942 30.9296C36.9979 31.1764 36.3148 33.059 36.2339 33.2919C36.1516 33.5218 36.267 33.703 36.4126 33.7553C36.7538 33.8777 37.0075 33.9558 37.4722 34.0656C38.1178 34.2181 38.6619 34.2277 39.1714 34.2277C40.2391 34.2277 41.2119 34.0773 42.0185 33.7855C42.8303 33.4916 43.5369 32.9794 44.1619 32.2861C44.8376 31.5382 45.2626 30.7549 45.6692 29.6865C46.0714 28.6277 46.4141 27.3131 46.6883 25.7812L49.3016 10.9641H53.1222C53.1222 10.9641 53.4442 10.9759 53.5111 10.6259L53.9435 8.20902C53.9736 7.97765 53.8751 7.83324 53.5648 7.83471H49.8567C49.8751 7.75071 50.0435 6.44355 50.4692 5.21302C50.6508 4.68765 50.9928 4.26397 51.2825 3.97292C51.5529 3.69572 51.8861 3.48796 52.2538 3.36723C52.6568 3.24238 53.0769 3.18171 53.4986 3.18744C53.8479 3.18744 54.1906 3.22945 54.4516 3.28397C54.8111 3.3606 54.9508 3.40113 55.045 3.42913C55.4229 3.54481 55.4736 3.43282 55.5479 3.24934L56.4347 0.808918C56.5258 0.546602 56.3038 0.436074 56.2214 0.403653ZM4.40231 25.5425C4.40231 25.737 4.26408 25.8954 4.06996 25.8954H0.994223C0.79937 25.8954 0.661133 25.737 0.661133 25.5425V0.734499C0.661133 0.540709 0.79937 0.383763 0.994223 0.383763H4.06996C4.26408 0.383763 4.40231 0.540709 4.40231 0.734499V25.5425Z" fill="#FFFFFE"/>
</svg>
